Coordinates
version=1
nRows=65
nColumns=12
inDegrees=yes

Units are S.I. units (second, meters, Newtons, ...)
Angles are in degrees

endheader
time	SC_y	SC_z	SC_x	AC_y	AC_z	AC_x	GH_y	GH_z	GH_yy	EL_x	PS_y
       0.0              -15.52          36.15          51.66          41.96          5.262         -11.44          39.75          67.01          -22.4          68.99          123.1
   0.04464              -15.52          36.14          51.66          41.96          5.259         -11.44          39.76           67.0         -22.39          68.98          123.1
   0.08929              -15.53          36.14          51.66          41.96          5.256         -11.44          39.78          66.99         -22.38          68.98          123.1
    0.1339              -15.54          36.13          51.67          41.96          5.253         -11.44          39.79          66.98         -22.37          68.97          123.1
    0.1786              -15.54          36.13          51.67          41.96           5.25         -11.44          39.81          66.96         -22.36          68.97          123.1
    0.2232              -15.55          36.12          51.68          41.96          5.247         -11.43          39.82          66.95         -22.34          68.96          123.1
    0.2679              -15.56          36.11          51.68          41.96          5.243         -11.43          39.84          66.94         -22.33          68.95          123.1
    0.3125              -15.56           36.1          51.69          41.97          5.239         -11.43          39.85          66.93         -22.31          68.95          123.0
    0.3572              -15.57           36.1          51.69          41.97          5.235         -11.43          39.87          66.91         -22.29          68.94          123.0
    0.4018              -15.58          36.09           51.7          41.97           5.23         -11.42          39.89           66.9         -22.28          68.93          123.0
    0.4464              -15.59          36.08           51.7          41.97          5.226         -11.42          39.92          66.88         -22.26          68.92          123.0
    0.4911               -15.6          36.07          51.71          41.97           5.22         -11.42          39.94          66.86         -22.24          68.91          123.0
    0.5357              -15.61          36.06          51.72          41.97          5.215         -11.41          39.96          66.84         -22.21           68.9          122.9
    0.5804              -15.63          36.04          51.73          41.98          5.209         -11.41          39.99          66.82         -22.19          68.89          122.9
     0.625              -15.64          36.03          51.73          41.98          5.202         -11.41          40.02           66.8         -22.16          68.88          122.9
    0.6697              -15.65          36.02          51.74          41.98          5.195          -11.4          40.05          66.78         -22.14          68.87          122.9
    0.7143              -15.67           36.0          51.75          41.98          5.187          -11.4          40.09          66.75          -22.1          68.85          122.8
    0.7589              -15.69          35.99          51.76          41.99          5.179         -11.39          40.13          66.72         -22.07          68.84          122.8
    0.8036              -15.71          35.97          51.78          41.99           5.17         -11.38          40.17          66.69         -22.03          68.82          122.8
    0.8482              -15.73          35.95          51.79           42.0           5.16         -11.38          40.21          66.65         -21.99           68.8          122.7
    0.8929              -15.75          35.93           51.8           42.0          5.149         -11.37          40.26          66.62         -21.95          68.78          122.7
    0.9375              -15.77           35.9          51.82           42.0          5.136         -11.36          40.32          66.57          -21.9          68.76          122.6
    0.9822               -15.8          35.87          51.83          42.01          5.123         -11.35          40.38          66.53         -21.85          68.74          122.6
     1.027              -15.83          35.85          51.85          42.01          5.108         -11.34          40.44          66.48         -21.79          68.71          122.5
     1.071              -15.87          35.81          51.87          42.02          5.092         -11.33          40.52          66.42         -21.72          68.68          122.4
     1.116               -15.9          35.78           51.9          42.03          5.073         -11.32           40.6          66.36         -21.65          68.64          122.3
     1.161              -15.95          35.74          51.92          42.03          5.052         -11.31          40.69          66.28         -21.57          68.61          122.3
     1.205              -15.99          35.69          51.95          42.04          5.029         -11.29           40.8           66.2         -21.47          68.56          122.2
      1.25              -16.05          35.64          51.99          42.05          5.003         -11.27          40.92          66.11         -21.37          68.52          122.0
     1.295              -16.11          35.58          52.03          42.06          4.973         -11.25          41.05          66.01         -21.25          68.46          121.9
     1.339              -16.18          35.51          52.07          42.08          4.939         -11.23           41.2          65.89         -21.11           68.4          121.8
     1.384              -16.26          35.43          52.12          42.09            4.9         -11.21          41.38          65.76         -20.96          68.33          121.6
     1.429              -16.35          35.34          52.18          42.11          4.855         -11.18          41.58           65.6         -20.78          68.25          121.4
     1.473              -16.46          35.24          52.24          42.13          4.802         -11.14          41.82          65.42         -20.57          68.15          121.2
     1.518              -16.58          35.12          52.32          42.15          4.741          -11.1           42.1          65.21         -20.32          68.04          120.9
     1.563              -16.73          34.98          52.41          42.18          4.668         -11.05          42.42          64.96         -20.03          67.91          120.6
     1.607              -16.91          34.81          52.52          42.21          4.582          -11.0          42.81          64.67         -19.69          67.75          120.3
     1.652              -17.12           34.6          52.65          42.25          4.479         -10.93          43.27          64.31         -19.28          67.56          119.8
     1.696              -17.38          34.36          52.81          42.29          4.354         -10.85          43.83          63.88         -18.78          67.33          119.3
     1.741              -17.69          34.06          53.01          42.35          4.202         -10.75          44.52          63.36         -18.17          67.05          118.6
     1.786              -18.07          33.69          53.24          42.42          4.014         -10.62          45.36          62.71         -17.42          66.71          117.8
      1.83              -18.55          33.22          53.54          42.51          3.779         -10.47          46.42           61.9         -16.48          66.28          116.8
     1.875              -19.16          32.64          53.92          42.62          3.484         -10.27          47.74          60.89         -15.31          65.74          115.6
      1.92              -19.93           31.9           54.4          42.76          3.108         -10.03          49.43          59.59         -13.81          65.06          114.0
     1.964              -20.91          30.95          55.01          42.94          2.628         -9.711          51.59          57.94         -11.89          64.18          112.0
     2.009              -22.17          29.73          55.79          43.17          2.011         -9.306          54.37          55.81         -9.426          63.06          109.3
     2.054              -23.78          28.17          56.79          43.46          1.223         -8.787          57.91           53.1         -6.281          61.62          106.0
     2.098              -25.81          26.22          58.05          43.83         0.2317         -8.135          62.36          49.69         -2.326          59.81          101.8
     2.143              -28.28          23.84          59.59          44.28        -0.9758          -7.34          67.79          45.53          2.493          57.61          96.65
     2.188              -31.15          21.07          61.37           44.8         -2.375         -6.419          74.08          40.72           8.08          55.05           90.7
     2.232              -34.25          18.08           63.3          45.36         -3.891         -5.422          80.89           35.5          14.13          52.29          84.26
     2.277              -37.35          15.09          65.22          45.92         -5.407         -4.425           87.7          30.28          20.18          49.52          77.83
     2.321              -40.22          12.33           67.0          46.44         -6.806         -3.504           94.0          25.47          25.76          46.97          71.88
     2.366              -42.69          9.942          68.54          46.89         -8.014          -2.71          99.42          21.31          30.58          44.77          66.75
     2.411              -44.72          7.986           69.8          47.26         -9.005         -2.058          103.9           17.9          34.54          42.96          62.54
     2.455              -46.33           6.43           70.8          47.55         -9.793         -1.539          107.4          15.19          37.68          41.52          59.19
       2.5              -47.59          5.213          71.58          47.78         -10.41         -1.133          110.2          13.06          40.14          40.39          56.57
     2.545              -48.57          4.263           72.2          47.96         -10.89        -0.8167          112.4          11.41          42.06          39.52          54.53
     2.589              -49.34          3.522          72.67           48.1         -11.27        -0.5696          114.0          10.11          43.56          38.83          52.94
     2.634              -49.95          2.939          73.05          48.21         -11.56        -0.3752          115.4          9.098          44.74          38.29          51.68
     2.679              -50.43          2.476          73.35           48.3          -11.8        -0.2209          116.4           8.29          45.68          37.86          50.68
     2.723              -50.81          2.104          73.59          48.37         -11.98       -0.09709          117.3          7.643          46.43          37.52          49.89
     2.768              -51.12          1.804          73.78          48.42         -12.14       0.003183          118.0          7.118          47.04          37.24          49.24
     2.813              -51.38          1.557          73.94          48.47         -12.26        0.08527          118.5          6.689          47.53          37.02          48.71
     2.857              -51.59          1.354          74.07          48.51         -12.36         0.1531          119.0          6.334          47.95          36.83          48.27
